<svg width="26" height="18" viewBox="0 0 26 18" fill="#0052ff" xmlns="http://www.w3.org/2000/svg">
<path d="M24.9914 3.00373C24.849 2.47548 24.5708 1.99373 24.1844 1.60644C23.798 1.21914 23.3168 0.939804 22.7889 0.796229C20.8314 0.258729 13.0002 0.249979 13.0002 0.249979C13.0002 0.249979 5.17017 0.241229 3.21142 0.754979C2.68382 0.905162 2.2037 1.18845 1.81713 1.57765C1.43056 1.96684 1.15052 2.44888 1.00392 2.97748C0.487668 4.93498 0.482668 8.99498 0.482668 8.99498C0.482668 8.99498 0.477668 13.075 0.990168 15.0125C1.27767 16.0837 2.12142 16.93 3.19392 17.2187C5.17142 17.7562 12.9814 17.765 12.9814 17.765C12.9814 17.765 20.8127 17.7737 22.7702 17.2612C23.2983 17.1179 23.7799 16.8392 24.1672 16.4527C24.5546 16.0662 24.8344 15.5853 24.9789 15.0575C25.4964 13.1012 25.5002 9.04248 25.5002 9.04248C25.5002 9.04248 25.5252 4.96123 24.9914 3.00373ZM10.4952 12.7562L10.5014 5.25623L17.0102 9.01248L10.4952 12.7562Z" fill="white"/>
</svg>
